<svg id="Layer_1" data-name="Layer 1" xmlns="http://www.w3.org/2000/svg" viewBox="0 0 26.39 17.89"><defs><style>.cls-1{fill:#fff;}</style></defs><title>shopping-cart</title><path class="cls-1" d="M24.18,14.84H11.28a.33.33,0,0,1-.31-.2L6,3.15H1.32A.34.34,0,0,1,1,2.81V1.32A.34.34,0,0,1,1.32,1H5.56a.35.35,0,0,1,.31.2l5.63,13H24.18a.34.34,0,0,1,.34.34A.34.34,0,0,1,24.18,14.84ZM1.66,2.47h4l-.36-.82H1.66Z" transform="translate(-0.98 -0.98)"/><path class="cls-1" d="M23,13.37H12.69a.35.35,0,0,1-.32-.22l-3-7.62H8.68a.34.34,0,0,1-.34-.34v-2a.34.34,0,0,1,.34-.34H27a.34.34,0,0,1,.34.34v2a.34.34,0,0,1-.34.34H26.3l-3,7.62A.35.35,0,0,1,23,13.37Zm-10.1-.68h9.87l3-7.62a.33.33,0,0,1,.31-.22h.62V3.57H9V4.85h.62a.33.33,0,0,1,.31.22Z" transform="translate(-0.98 -0.98)"/><path class="cls-1" d="M23,18.86A1.88,1.88,0,1,1,24.87,17,1.88,1.88,0,0,1,23,18.86Zm0-3.09A1.21,1.21,0,1,0,24.19,17,1.21,1.21,0,0,0,23,15.77Z" transform="translate(-0.98 -0.98)"/><path class="cls-1" d="M11.33,18.86A1.88,1.88,0,1,1,13.21,17,1.89,1.89,0,0,1,11.33,18.86Zm0-3.09A1.21,1.21,0,1,0,12.53,17,1.21,1.21,0,0,0,11.33,15.77Z" transform="translate(-0.98 -0.98)"/></svg>